<?xml version="1.0" standalone="no"?>
<!DOCTYPE svg PUBLIC "-//W3C//DTD SVG 20010904//EN"
 "http://www.w3.org/TR/2001/REC-SVG-20010904/DTD/svg10.dtd">
<svg version="1.0" xmlns="http://www.w3.org/2000/svg"
 width="435.000000pt" height="435.000000pt" viewBox="0 0 435.000000 435.000000"
 preserveAspectRatio="xMidYMid meet">
<metadata>
Created by potrace 1.11, written by Peter Selinger 2001-2013
</metadata>
<g transform="translate(0.000000,435.000000) scale(0.100000,-0.100000)"
fill="#000000" stroke="none">
<path d="M3350 3792 c-74 -9 -361 -66 -462 -92 -216 -55 -453 -142 -628 -230
l-55 -28 -28 24 c-36 31 -87 44 -132 34 -67 -15 -55 -5 -385 -349 -111 -117
-169 -168 -250 -223 -216 -147 -517 -379 -659 -507 -24 -22 -47 -38 -51 -36
-4 2 -55 -44 -113 -103 -299 -302 -468 -582 -521 -865 -17 -87 -20 -215 -7
-231 14 -16 22 -78 10 -70 -5 3 -9 -2 -9 -11 0 -9 4 -14 8 -11 4 2 18 -16 29
-42 12 -26 42 -90 66 -143 24 -53 51 -99 60 -102 9 -3 23 -21 30 -39 11 -26
29 -41 80 -67 36 -18 68 -38 69 -43 5 -15 236 -78 287 -78 26 0 76 9 110 20
63 21 151 41 151 34 0 -2 -15 -11 -32 -19 -38 -16 -41 -17 127 15 135 26 229
53 317 91 36 16 76 29 89 29 12 0 30 7 39 15 10 9 26 18 36 20 34 8 299 117
313 128 11 10 13 8 6 -13 -8 -25 -8 -25 14 -6 11 11 24 17 27 13 3 -3 34 12
69 33 l63 38 414 0 c400 0 416 1 455 21 30 15 47 33 64 68 22 46 23 56 24 330
0 279 1 283 23 303 12 11 22 26 22 31 0 6 6 9 13 6 18 -7 85 45 79 62 -2 8 0
11 6 8 15 -10 61 31 59 52 -1 19 -2 19 -28 1 -14 -11 -41 -33 -59 -50 -18 -16
-36 -30 -41 -30 -5 0 -9 -7 -9 -16 0 -8 -4 -12 -10 -9 -5 3 -17 -3 -27 -15
-10 -11 -21 -20 -25 -20 -14 0 -4 24 17 43 11 10 31 28 45 41 14 13 28 23 32
22 3 -1 20 15 37 34 16 19 57 55 91 80 34 25 79 62 101 83 23 20 45 37 50 37
20 0 25 2 42 17 9 9 17 22 17 29 0 7 6 11 14 8 8 -3 21 6 31 23 9 16 30 36 47
46 26 15 30 22 25 46 -4 20 -1 33 9 42 13 10 14 8 9 -21 l-6 -32 27 31 c14 17
24 37 21 45 -3 8 8 26 24 42 28 27 42 22 17 -5 -11 -11 -10 -12 3 -5 22 12 78
80 141 171 28 40 53 71 56 69 10 -10 72 130 78 176 5 34 10 45 20 41 9 -3 14
2 15 13 2 34 -3 48 -22 62 -13 9 -17 21 -14 40 12 68 13 92 4 92 -5 0 -9 10
-9 22 l0 22 15 -21 c33 -47 165 -57 165 -13 0 10 5 22 10 25 17 10 2 277 -20
372 -37 157 -129 260 -286 319 -183 68 -312 91 -434 76z m272 -331 c141 -68
180 -126 193 -286 5 -58 2 -77 -15 -112 -22 -46 -32 -126 -20 -158 9 -25 -21
-139 -43 -163 -9 -10 -25 -46 -36 -80 -10 -34 -34 -86 -52 -114 -39 -61 -176
-228 -187 -228 -4 0 -34 -26 -67 -57 -51 -48 -60 -54 -63 -38 -7 34 -86 126
-262 301 -2 3 -5 155 -6 337 -1 368 -1 369 -68 404 -44 24 -198 23 -246 0 -60
-29 -70 -57 -70 -203 l0 -128 -115 120 c-63 65 -114 124 -115 130 -1 25 339
166 560 233 196 60 331 86 437 85 82 -1 95 -5 175 -43z m-2781 -1399 c29 -15
59 -17 182 -17 l147 1 0 -41 c0 -22 0 -229 1 -460 0 -440 3 -469 45 -516 39
-43 79 -51 259 -50 l170 0 -55 -27 c-30 -15 -91 -42 -135 -61 -44 -18 -88 -37
-97 -42 -10 -5 -23 -6 -31 -3 -8 3 -43 -6 -78 -19 -69 -26 -226 -73 -273 -81
-16 -3 -55 -11 -85 -17 -65 -14 -260 -17 -341 -6 -61 8 -162 68 -166 99 -1 9
-15 33 -30 54 -48 63 -73 153 -69 254 2 48 8 105 14 126 5 22 13 61 17 88 3
28 17 66 29 86 13 20 43 85 68 143 48 113 101 195 206 317 57 67 177 190 184
190 2 0 18 -8 38 -18z m2299 -23 c0 -4 -26 -28 -57 -55 -32 -27 -67 -57 -77
-66 -11 -10 -22 -18 -26 -18 -9 0 -8 134 1 140 12 8 159 6 159 -1z"/>
<path d="M3286 1943 c-6 -14 -5 -15 5 -6 7 7 10 15 7 18 -3 3 -9 -2 -12 -12z"/>
<path d="M3231 1900 c-13 -11 -19 -20 -14 -20 6 0 18 9 28 20 23 25 17 25 -14
0z"/>
<path d="M1625 800 c-3 -6 1 -7 9 -4 18 7 21 14 7 14 -6 0 -13 -4 -16 -10z"/>
<path d="M1036 591 c-4 -5 3 -7 14 -4 23 6 26 13 6 13 -8 0 -17 -4 -20 -9z"/>
<path d="M958 573 c7 -3 16 -2 19 1 4 3 -2 6 -13 5 -11 0 -14 -3 -6 -6z"/>
</g>
</svg>
