<svg version="1" xmlns="http://www.w3.org/2000/svg" width="580" height="580" viewBox="0 0 435.000000 435.000000"><path d="M335 55.8c-7.4.9-36.1 6.6-46.2 9.2-21.6 5.5-45.3 14.2-62.8 23l-5.5 2.8-2.8-2.4c-3.6-3.1-8.7-4.4-13.2-3.4-6.7 1.5-5.5.5-38.5 34.9-11.1 11.7-16.9 16.8-25 22.3-21.6 14.7-51.7 37.9-65.9 50.7-2.4 2.2-4.7 3.8-5.1 3.6-.4-.2-5.5 4.4-11.3 10.3C28.8 237 11.9 265 6.6 293.3c-1.7 8.7-2 21.5-.7 23.1 1.4 1.6 2.2 7.8 1 7-.5-.3-.9.2-.9 1.1 0 .9.4 1.4.8 1.1.4-.2 1.8 1.6 2.9 4.2 1.2 2.6 4.2 9 6.6 14.3 2.4 5.3 5.1 9.9 6 10.2.9.3 2.3 2.1 3 3.9 1.1 2.6 2.9 4.1 8 6.7 3.6 1.8 6.8 3.8 6.9 4.3.5 1.5 23.6 7.8 28.7 7.8 2.6 0 7.6-.9 11-2 6.3-2.1 15.1-4.1 15.1-3.4 0 .2-1.5 1.1-3.2 1.9-3.8 1.6-4.1 1.7 12.7-1.5 13.5-2.6 22.9-5.3 31.7-9.1 3.6-1.6 7.6-2.9 8.9-2.9 1.2 0 3-.7 3.9-1.5 1-.9 2.6-1.8 3.6-2 3.4-.8 29.9-11.7 31.3-12.8 1.1-1 1.3-.8.6 1.3-.8 2.5-.8 2.5 1.4.6 1.1-1.1 2.4-1.7 2.7-1.3.3.3 3.4-1.2 6.9-3.3l6.3-3.8h41.4c40 0 41.6-.1 45.5-2.1 3-1.5 4.7-3.3 6.4-6.8 2.2-4.6 2.3-5.6 2.4-33 0-27.9.1-28.3 2.3-30.3 1.2-1.1 2.2-2.6 2.2-3.1 0-.6.6-.9 1.3-.6 1.8.7 8.5-4.5 7.9-6.2-.2-.8 0-1.1.6-.8 1.5 1 6.1-3.1 5.9-5.2-.1-1.9-.2-1.9-2.8-.1-1.4 1.1-4.1 3.3-5.9 5-1.8 1.6-3.6 3-4.1 3-.5 0-.9.7-.9 1.6 0 .8-.4 1.2-1 .9-.5-.3-1.7.3-2.7 1.5-1 1.1-2.1 2-2.5 2-1.4 0-.4-2.4 1.7-4.3 1.1-1 3.1-2.8 4.5-4.1 1.4-1.3 2.8-2.3 3.2-2.2.3.1 2-1.5 3.7-3.4 1.6-1.9 5.7-5.5 9.1-8 3.4-2.5 7.9-6.2 10.1-8.3 2.3-2 4.5-3.7 5-3.7 2 0 2.5-.2 4.2-1.7.9-.9 1.7-2.2 1.7-2.9 0-.7.6-1.1 1.4-.8.8.3 2.1-.6 3.1-2.3.9-1.6 3-3.6 4.7-4.6 2.6-1.5 3-2.2 2.5-4.6-.4-2-.1-3.3.9-4.2 1.3-1 1.4-.8.9 2.1l-.6 3.2 2.7-3.1c1.4-1.7 2.4-3.7 2.1-4.5-.3-.8.8-2.6 2.4-4.2 2.8-2.7 4.2-2.2 1.7.5-1.1 1.1-1 1.2.3.5 2.2-1.2 7.8-8 14.1-17.1 2.8-4 5.3-7.1 5.6-6.9 1 1 7.2-13 7.8-17.6.5-3.4 1-4.5 2-4.1.9.3 1.4-.2 1.5-1.3.2-3.4-.3-4.8-2.2-6.2-1.3-.9-1.7-2.1-1.4-4 1.2-6.8 1.3-9.2.4-9.2-.5 0-.9-1-.9-2.2v-2.2l1.5 2.1c3.3 4.7 16.5 5.7 16.5 1.3 0-1 .5-2.2 1-2.5 1.7-1 .2-27.7-2-37.2-3.7-15.7-12.9-26-28.6-31.9-18.3-6.8-31.2-9.1-43.4-7.6zm27.2 33.1c14.1 6.8 18 12.6 19.3 28.6.5 5.8.2 7.7-1.5 11.2-2.2 4.6-3.2 12.6-2 15.8.9 2.5-2.1 13.9-4.3 16.3-.9 1-2.5 4.6-3.6 8-1 3.4-3.4 8.6-5.2 11.4-3.9 6.1-17.6 22.8-18.7 22.8-.4 0-3.4 2.6-6.7 5.7-5.1 4.8-6 5.4-6.3 3.8-.7-3.4-8.6-12.6-26.2-30.1-.2-.3-.5-15.5-.6-33.7-.1-36.8-.1-36.9-6.8-40.4-4.4-2.4-19.8-2.3-24.6 0-6 2.9-7 5.7-7 20.3v12.8l-11.5-12c-6.3-6.5-11.4-12.4-11.5-13-.1-2.5 33.9-16.6 56-23.3 19.6-6 33.1-8.6 43.7-8.5 8.2.1 9.5.5 17.5 4.3zM84.1 228.8c2.9 1.5 5.9 1.7 18.2 1.7l14.7-.1v4.1c0 2.2 0 22.9.1 46 0 44 .3 46.9 4.5 51.6 3.9 4.3 7.9 5.1 25.9 5h17l-5.5 2.7c-3 1.5-9.1 4.2-13.5 6.1-4.4 1.8-8.8 3.7-9.7 4.2-1 .5-2.3.6-3.1.3-.8-.3-4.3.6-7.8 1.9-6.9 2.6-22.6 7.3-27.3 8.1-1.6.3-5.5 1.1-8.5 1.7-6.5 1.4-26 1.7-34.1.6-6.1-.8-16.2-6.8-16.6-9.9-.1-.9-1.5-3.3-3-5.4-4.8-6.3-7.3-15.3-6.9-25.4.2-4.8.8-10.5 1.4-12.6.5-2.2 1.3-6.1 1.7-8.8.3-2.8 1.7-6.6 2.9-8.6 1.3-2 4.3-8.5 6.8-14.3 4.8-11.3 10.1-19.5 20.6-31.7 5.7-6.7 17.7-19 18.4-19 .2 0 1.8.8 3.8 1.8zm229.9 2.3c0 .4-2.6 2.8-5.7 5.5-3.2 2.7-6.7 5.7-7.7 6.6-1.1 1-2.2 1.8-2.6 1.8-.9 0-.8-13.4.1-14 1.2-.8 15.9-.6 15.9.1z"/><path d="M328.6 240.7c-.6 1.4-.5 1.5.5.6.7-.7 1-1.5.7-1.8-.3-.3-.9.2-1.2 1.2zM323.1 245c-1.3 1.1-1.9 2-1.4 2 .6 0 1.8-.9 2.8-2 2.3-2.5 1.7-2.5-1.4 0zM162.5 355c-.3.6.1.7.9.4 1.8-.7 2.1-1.4.7-1.4-.6 0-1.3.4-1.6 1zM103.6 375.9c-.4.5.3.7 1.4.4 2.3-.6 2.6-1.3.6-1.3-.8 0-1.7.4-2 .9zM95.8 377.7c.7.3 1.6.2 1.9-.1.4-.3-.2-.6-1.3-.5-1.1 0-1.4.3-.6.6z"/></svg>